<svg width="84" height="84" viewBox="0 0 84 84" fill="none" xmlns="http://www.w3.org/2000/svg">
<circle cx="42" cy="42" r="42" fill="#323131"/>
<path d="M21.8 44.92V41.76H29.32C30.9467 41.76 32.2 41.3467 33.08 40.52C33.96 39.6933 34.4 38.5733 34.4 37.16C34.4 35.8267 33.96 34.72 33.08 33.84C32.2267 32.96 30.9867 32.52 29.36 32.52H21.8V29.24H29.48C31.24 29.24 32.7733 29.5867 34.08 30.28C35.3867 30.9467 36.3867 31.8667 37.08 33.04C37.8 34.2133 38.16 35.56 38.16 37.08C38.16 38.6533 37.8 40.0267 37.08 41.2C36.3867 42.3733 35.3867 43.2933 34.08 43.96C32.7733 44.6 31.24 44.92 29.48 44.92H21.8ZM19.28 57V29.24H23.04V57H19.28ZM35.28 57L25.2 44.56L28.76 43.32L40.04 57H35.28ZM40.99 57L52.35 29.24H55.07L66.39 57H62.31L52.99 33.52H54.39L44.99 57H40.99ZM46.39 50.72V47.44H60.99V50.72H46.39Z" fill="white"/>
</svg>
